<?xml version="1.0" encoding="UTF-8" standalone="no"?>
<svg
   fill="#000000"
   viewBox="0 0 96 96"
   width="48"
   height="48"
   version="1.1"
   id="svg11"
   sodipodi:docname="github.svg"
   inkscape:version="1.1.1 (c3084ef, 2021-09-22)"
   xmlns:inkscape="http://www.inkscape.org/namespaces/inkscape"
   xmlns:sodipodi="http://sodipodi.sourceforge.net/DTD/sodipodi-0.dtd"
   xmlns="http://www.w3.org/2000/svg"
   xmlns:svg="http://www.w3.org/2000/svg">
  <defs
     id="defs15" />
  <sodipodi:namedview
     id="namedview13"
     pagecolor="#ffffff"
     bordercolor="#666666"
     borderopacity="1.0"
     inkscape:pageshadow="2"
     inkscape:pageopacity="0.0"
     inkscape:pagecheckerboard="0"
     showgrid="false"
     inkscape:zoom="6.51"
     inkscape:cx="40.93702"
     inkscape:cy="22.65745"
     inkscape:window-width="1440"
     inkscape:window-height="847"
     inkscape:window-x="0"
     inkscape:window-y="25"
     inkscape:window-maximized="0"
     inkscape:current-layer="svg11" />
  <path
     d="m 48.041475,0.93394778 c -26.01721,0 -47.10752722,21.09031722 -47.10752722,47.10752722 0,26.01721 21.09031722,47.107527 47.10752722,47.107527 26.01721,0 47.107527,-21.090317 47.107527,-47.107527 0,-26.01721 -21.090317,-47.10752722 -47.107527,-47.10752722 z m 0,2.77103102 c 24.487601,0 44.336496,19.8488952 44.336496,44.3364962 0,20.272616 -13.619485,37.331587 -32.197,42.615425 -0.377658,-0.571481 -0.652758,-1.237293 -0.633222,-2.018738 0.07482,-2.928979 0,-9.756196 0,-12.263979 0,-4.303411 -2.722322,-7.355139 -2.722322,-7.355139 0,0 21.361834,0.241994 21.361834,-22.552509 0,-8.795253 -4.58952,-13.373472 -4.58952,-13.373472 0,0 2.411534,-9.391502 -0.838886,-13.373473 -3.643905,-0.393487 -10.171848,3.483618 -12.956734,5.293101 0,0 -4.409231,-1.807665 -11.755234,-1.807665 -7.346003,0 -11.760646,1.807665 -11.760646,1.807665 -2.787657,-1.809483 -9.312829,-5.686588 -12.956735,-5.293101 -3.250419,3.981971 -0.838885,13.373473 -0.838885,13.373473 0,0 -4.594932,4.572807 -4.594932,13.36806 0,22.794498 21.361834,22.552509 21.361834,22.552509 0,0 -2.151063,2.424145 -2.624903,5.991274 -1.47364,0.522309 -3.511698,1.152791 -5.455468,1.152791 -4.635932,0 -8.158348,-4.508207 -9.449648,-6.592023 -1.274674,-2.056105 -3.885678,-3.783105 -6.321415,-3.783105 -1.604427,0 -2.392178,0.803859 -2.392178,1.72107 0,0.917209 2.249124,1.554072 3.734397,3.252714 3.131265,3.582943 3.075326,11.64699 14.223184,11.64699 1.313901,0 3.673328,-0.298482 5.563709,-0.557454 -0.01219,2.61646 -0.0414,5.167502 0,6.786862 0.01967,0.78255 -0.254713,1.452169 -0.633222,2.024149 C 17.324463,85.373062 3.7049788,68.314091 3.7049788,48.041475 3.7049788,23.553874 23.553874,3.7049788 48.041475,3.7049788 Z"
     id="path9"
     style="stroke-width:2.77103" />
</svg>
