<?xml version="1.0" encoding="UTF-8" standalone="no"?>
<!-- Generator: Adobe Illustrator 25.0.0, SVG Export Plug-In . SVG Version: 6.00 Build 0)  -->

<svg
   version="1.1"
   id="Layer_1"
   x="0px"
   y="0px"
   width="48"
   height="48"
   viewBox="0 0 48 48"
   xml:space="preserve"
   sodipodi:docname="wos.svg"
   inkscape:version="1.1.1 (c3084ef, 2021-09-22)"
   xmlns:inkscape="http://www.inkscape.org/namespaces/inkscape"
   xmlns:sodipodi="http://sodipodi.sourceforge.net/DTD/sodipodi-0.dtd"
   xmlns="http://www.w3.org/2000/svg"
   xmlns:svg="http://www.w3.org/2000/svg"><defs
   id="defs52"><filter
     style="color-interpolation-filters:sRGB"
     inkscape:label="Greyscale"
     id="filter329"
     x="0"
     y="0"
     width="1"
     height="1"><feColorMatrix
       values="0.21 0.72 0.072 0 0 0.21 0.72 0.072 0 0 0.21 0.72 0.072 0 0 0 0 0 1 0 "
       id="feColorMatrix327" /></filter></defs><sodipodi:namedview
   id="namedview50"
   pagecolor="#ffffff"
   bordercolor="#666666"
   borderopacity="1.0"
   inkscape:pageshadow="2"
   inkscape:pageopacity="0.0"
   inkscape:pagecheckerboard="0"
   showgrid="false"
   inkscape:zoom="4.5471798"
   inkscape:cx="53.549675"
   inkscape:cy="31.997855"
   inkscape:window-width="1440"
   inkscape:window-height="847"
   inkscape:window-x="0"
   inkscape:window-y="25"
   inkscape:window-maximized="0"
   inkscape:current-layer="Layer_1"
   units="px" />
<style
   type="text/css"
   id="style9">
	.st0{fill:#16AB03;}
	.st1{fill:#5E33BF;}
</style>
<g
   id="g47"
   clip-path="none"
   style="filter:url(#filter329)"
   transform="matrix(1.9109748,0,0,1.9109748,3.2987477,0.87966617)">
	<g
   id="g17">
		<path
   class="st0"
   d="m 6.853992,19.2698 c 0.3933997,1.0499 0.8710999,2.0763 1.4429002,3.0667 0.4108,0.7115 0.8646994,1.3934 1.3544998,2.0457 4.8382,-1.1875 9.142099,-3.7346 12.481899,-7.215 -0.773699,-1.8074 -1.802099,-3.4807 -3.040399,-4.9742 -3.0408,3.6674 -7.3452,6.2506 -12.2389,7.0768 z"
   id="path11" />
		<path
   class="st1"
   d="M 9.636692,0 C 8.4739923,1.5495 7.534192,3.2671001 6.8505921,5.1156001 11.745692,5.9411998 16.051392,8.5247002 19.092892,12.193 c 1.2383,-1.4935 2.266701,-3.1667997 3.0404,-4.9742 C 18.790092,3.7348001 14.480892,1.186 9.636692,0 Z"
   id="path13" />
		<path
   d="M 6.853992,19.2698 C 5.3825522,15.3429 5.162242,11.0675 6.269392,6.9356995 6.4353919,6.3161993 6.6308918,5.7096997 6.8505921,5.1155997 5.7492318,4.9298 4.6183119,4.8323002 3.464972,4.8323002 c -0.8245001,0 -1.6373001,0.0507 -2.4363201,0.1466999 -1.34466,4.6360998 -1.3972501,9.6406999 -0.00265,14.4276009 0.79988,0.0962 1.61356,0.146999 2.4389701,0.146999 1.1545601,0 2.2866397,-0.0977 3.38902,-0.2838 z"
   id="path15" />
	</g>
	<g
   id="g45">
		<g
   id="g37">
			
			
			
			
			
			
			
			
			
		</g>
		<g
   id="g43">
			
			
		</g>
	</g>
</g>
</svg>
